<svg height='300px' width='300px'  fill="#000000" xmlns:dc="http://purl.org/dc/elements/1.1/" xmlns:cc="http://creativecommons.org/ns#" xmlns:rdf="http://www.w3.org/1999/02/22-rdf-syntax-ns#" xmlns:svg="http://www.w3.org/2000/svg" xmlns="http://www.w3.org/2000/svg" xmlns:sodipodi="http://sodipodi.sourceforge.net/DTD/sodipodi-0.dtd" xmlns:inkscape="http://www.inkscape.org/namespaces/inkscape" viewBox="0 0 100 100" version="1.1" x="0px" y="0px"><g transform="translate(0,-952.36216)"><g transform="matrix(1.999997,0,0,1.999997,-851.9211,2187.0688)"><g transform="matrix(1.7070676,0,0,1.6956166,-657.36755,1016.8629)"><path style="color:#000000;font-style:normal;font-variant:normal;font-weight:normal;font-stretch:normal;font-size:medium;line-height:normal;font-family:sans-serif;text-indent:0;text-align:start;text-decoration:none;text-decoration-line:none;text-decoration-style:solid;text-decoration-color:#000000;letter-spacing:normal;word-spacing:normal;text-transform:none;direction:ltr;block-progression:tb;writing-mode:lr-tb;baseline-shift:baseline;text-anchor:start;white-space:normal;clip-rule:nonzero;display:inline;overflow:visible;visibility:visible;opacity:1;isolation:auto;mix-blend-mode:normal;color-interpolation:sRGB;color-interpolation-filters:linearRGB;solid-color:#000000;solid-opacity:1;fill:#000000;fill-opacity:1;fill-rule:nonzero;stroke:none;stroke-width:0.88166183;stroke-linecap:round;stroke-linejoin:round;stroke-miterlimit:4;stroke-dasharray:none;stroke-dashoffset:0;stroke-opacity:1;color-rendering:auto;image-rendering:auto;shape-rendering:auto;text-rendering:auto;enable-background:accumulate" d="m 649.31626,-958.47776 a 0.44062045,0.44062045 0 0 0 -0.36134,0.19804 c -0.80201,1.17105 -3.34412,2.16658 -6.25255,2.18379 a 0.44062045,0.44062045 0 0 0 -0.0172,0 0.44062045,0.44062045 0 0 0 -0.0572,-0.006 0.44062045,0.44062045 0 0 0 -0.43338,0.35112 c 0,0 -0.43958,1.99028 -0.65979,4.39757 -0.22022,2.40735 -0.26562,5.2264 0.70095,7.04652 0.72409,1.36349 2.4373,2.45939 3.96674,3.29359 1.41462,0.77155 2.58134,1.23848 2.76493,1.31122 a 0.44062045,0.44062045 0 0 0 0.29159,0.0921 0.44062045,0.44062045 0 0 0 0.29502,-0.0944 0.44062045,0.44062045 0 0 0 0.002,0 c 0.19114,-0.0756 1.35206,-0.53902 2.7615,-1.30774 1.52943,-0.8342 3.24035,-1.9301 3.96445,-3.29359 0.96657,-1.82012 0.92116,-4.63917 0.70094,-7.04652 -0.22022,-2.40729 -0.65978,-4.39757 -0.65978,-4.39757 a 0.44062045,0.44062045 0 0 0 -0.44482,-0.35112 0.44062045,0.44062045 0 0 0 -0.0366,0 c -2.79456,-0.0112 -5.24962,-0.95391 -6.10618,-2.09171 a 0.44062045,0.44062045 0 0 0 -0.41966,-0.28899 z m -0.008,1.14777 c 1.22825,1.30432 3.58517,2.03767 6.2171,2.10209 0.0882,0.41949 0.39447,1.91996 0.58089,3.95781 0.21454,2.3451 0.16979,5.09821 -0.60262,6.55265 -0.52991,0.99788 -2.13488,2.12938 -3.60882,2.93328 -1.33429,0.72775 -2.41857,1.16475 -2.63572,1.25133 -0.21716,-0.0866 -1.30143,-0.52358 -2.63572,-1.25133 -1.47394,-0.8039 -3.0789,-1.9354 -3.60882,-2.93328 -0.77241,-1.45444 -0.81714,-4.20755 -0.60262,-6.55265 0.18633,-2.03685 0.49247,-3.53608 0.58089,-3.95669 2.67762,-0.0642 5.07062,-0.79712 6.31544,-2.10321 z"></path></g></g><path style="color:#000000;font-style:normal;font-variant:normal;font-weight:normal;font-stretch:normal;font-size:medium;line-height:normal;font-family:sans-serif;text-indent:0;text-align:start;text-decoration:none;text-decoration-line:none;text-decoration-style:solid;text-decoration-color:#000000;letter-spacing:normal;word-spacing:normal;text-transform:none;direction:ltr;block-progression:tb;writing-mode:lr-tb;baseline-shift:baseline;text-anchor:start;white-space:normal;clip-rule:nonzero;display:inline;overflow:visible;visibility:visible;opacity:1;isolation:auto;mix-blend-mode:normal;color-interpolation:sRGB;color-interpolation-filters:linearRGB;solid-color:#000000;solid-opacity:1;fill:#000000;fill-opacity:1;fill-rule:nonzero;stroke:none;stroke-width:1.50000012;stroke-linecap:round;stroke-linejoin:round;stroke-miterlimit:4;stroke-dasharray:none;stroke-dashoffset:0;stroke-opacity:1;color-rendering:auto;image-rendering:auto;shape-rendering:auto;text-rendering:auto;enable-background:accumulate" d="m 49.990204,986.37594 c -2.239837,0.02 -4.424774,1.28979 -5.734372,3.73439 -1.186178,2.2142 -1.840077,5.38679 -2.046857,9.76159 -1.253938,0.36198 -2.195316,1.52438 -2.195316,2.88278 l 0,12.586 c 0,1.6392 1.364638,3.0078 3.003895,3.0078 l 13.960919,0 c 1.639258,0 3.007816,-1.3686 3.007816,-3.0078 l 0,-12.586 c 0,-1.304 -0.871299,-2.4272 -2.050777,-2.83578 -0.1818,-4.2214 -0.868339,-7.40519 -2.085937,-9.66019 -1.345078,-2.491 -3.536695,-3.89579 -5.859371,-3.88279 z m 0.016,2.99999 c 1.241218,0 2.224936,0.497 3.203135,2.3086 0.861719,1.5958 1.511678,4.29159 1.710937,8.06239 l -9.695305,0 c 0.22002,-3.966 0.852579,-6.68199 1.675777,-8.21859 0.930079,-1.7362 1.809458,-2.1454 3.105456,-2.1524 z m -6.98827,13.37097 c 4.915393,0 9.697326,0 13.960919,0 0.0292,0 0.008,-0.022 0.008,0 l 0,12.586 c 0,0.03 0.0216,0 -0.008,0 l -13.960919,0 c -0.0292,0 -0.004,0.022 -0.004,0 l 0,-12.586 c 0,-0.03 -0.0254,0 0.004,0 z"></path></g></svg>